<svg width="512" height="512" viewBox="0 0 512 512" fill="none" xmlns="http://www.w3.org/2000/svg">
<path d="M455.7 351.22L425.95 320.91C421.804 316.714 419.486 311.049 419.5 305.15V213.5C419.5 139.52 370.11 76.87 302.57 56.77C303.18 53.73 303.5 50.62 303.5 47.5C303.5 21.31 282.19 0 256 0C229.81 0 208.5 21.31 208.5 47.5C208.5 50.65 208.81 53.75 209.4 56.78C141.88 76.89 92.4997 139.53 92.4997 213.5V305.15C92.4997 311.08 90.2097 316.68 86.0497 320.91L56.2997 351.22C39.7797 368.04 35.1797 392 44.3097 413.75C53.4297 435.49 73.7497 449 97.3297 449H185.02C189.24 484.43 219.45 512 256 512C292.55 512 322.76 484.43 326.98 449H414.67C438.25 449 458.57 435.49 467.69 413.75C476.82 392 472.22 368.04 455.7 351.22ZM243.5 47.5C243.5 40.61 249.11 35 256 35C262.89 35 268.5 40.61 268.5 47.5C268.5 48.58 268.36 49.55 268.14 50.45C264.13 50.16 260.08 50 256 50C251.92 50 247.87 50.16 243.86 50.45C243.64 49.56 243.5 48.58 243.5 47.5ZM256 477C238.8 477 224.35 465.04 220.51 449H291.49C287.65 465.04 273.2 477 256 477ZM435.42 400.21C434.06 403.45 428.55 414 414.67 414H97.3297C83.4497 414 77.9397 403.44 76.5797 400.21C75.2197 396.97 71.5497 385.65 81.2697 375.74L111.03 345.43C121.65 334.61 127.5 320.31 127.5 305.15V213.5C127.5 142.65 185.14 85 256 85C326.86 85 384.5 142.65 384.5 213.5V305.15C384.5 320.31 390.35 334.61 400.97 345.43L430.73 375.74C440.45 385.64 436.78 396.97 435.42 400.21Z" fill="black"/>
</svg>
